<svg width="24" height="24" viewBox="0 0 24 24" fill="none" xmlns="http://www.w3.org/2000/svg">
<circle cx="12" cy="12" r="12" fill="white"/>
<path d="M18 12.5C18.2761 12.5 18.5 12.2761 18.5 12C18.5 11.7239 18.2761 11.5 18 11.5V12V12.5ZM6.64645 11.6464C6.45118 11.8417 6.45118 12.1583 6.64645 12.3536L9.82843 15.5355C10.0237 15.7308 10.3403 15.7308 10.5355 15.5355C10.7308 15.3403 10.7308 15.0237 10.5355 14.8284L7.70711 12L10.5355 9.17157C10.7308 8.97631 10.7308 8.65973 10.5355 8.46447C10.3403 8.2692 10.0237 8.2692 9.82843 8.46447L6.64645 11.6464ZM18 12V11.5L7 11.5V12V12.5L18 12.5V12Z" fill="#276CA6"/>
</svg>
