<svg width="24" height="24" viewBox="0 0 24 24" fill="none" xmlns="http://www.w3.org/2000/svg">
<g clip-path="url(#clip0_178_2)">
<mask id="mask0_178_2" style="mask-type:luminance" maskUnits="userSpaceOnUse" x="0" y="0" width="24" height="24">
<path d="M24 0H0V24H24V0Z" fill="white"/>
</mask>
<g mask="url(#mask0_178_2)">
<path d="M24 12C24 5.37259 18.6274 0 12 0C5.37259 0 0 5.37259 0 12C0 18.6274 5.37259 24 12 24C18.6274 24 24 18.6274 24 12Z" fill="#276AA7"/>
<path d="M17.8127 16.0242V14.5107H17.1598V16.0242H15.6464V16.6771H17.1598V18.1902H17.8127V16.6771H19.3262V16.0242H17.8127Z" fill="white"/>
<path d="M17.4921 13.0244C17.0096 12.3777 16.4312 11.816 15.763 11.3618C15.7095 11.3251 15.6014 11.255 15.6014 11.255L15.3406 11.0857L15.1589 11.3382C14.3599 12.4474 13.0697 13.1098 11.708 13.1098C10.346 13.1098 9.05612 12.4474 8.25718 11.3379L8.07478 11.0845L7.6801 11.3436C5.6824 12.6891 4.48975 14.9287 4.48975 17.3345V18.3837H14.8587C15.4678 19.169 16.4176 19.6775 17.4862 19.6775C19.3207 19.6775 20.813 18.1851 20.813 16.3509C20.813 14.5185 19.3238 13.0277 17.4921 13.0244ZM5.14266 17.7308V17.3345C5.14266 15.1965 6.17818 13.2027 7.92077 11.9708C8.84916 13.0984 10.2424 13.7628 11.708 13.7628C13.1736 13.7628 14.5668 13.0984 15.4952 11.9708C15.9581 12.298 16.3734 12.6808 16.7359 13.1126C15.2622 13.4541 14.1593 14.7748 14.1593 16.351C14.1593 16.8435 14.2698 17.3098 14.4628 17.7308H5.14266ZM17.4862 19.0245C16.0117 19.0245 14.8123 17.8252 14.8123 16.3509C14.8123 14.8764 16.0117 13.677 17.4862 13.677C18.9607 13.677 20.1601 14.8764 20.1601 16.3509C20.1601 17.8252 18.9607 19.0245 17.4862 19.0245Z" fill="white"/>
<path d="M11.7077 4.29492C9.73394 4.29492 8.12842 5.90078 8.12842 7.8746C8.12842 9.84837 9.73394 11.4539 11.7077 11.4539C13.6815 11.4539 15.2874 9.84837 15.2874 7.8746C15.2874 5.90078 13.6815 4.29492 11.7077 4.29492ZM11.7077 10.801C10.0942 10.801 8.78133 9.48811 8.78133 7.87456C8.78133 6.26071 10.0942 4.94783 11.7077 4.94783C13.3216 4.94783 14.6344 6.26071 14.6344 7.87456C14.6344 9.48811 13.3216 10.801 11.7077 10.801Z" fill="white"/>
</g>
</g>
<defs>
<clipPath id="clip0_178_2">
<rect width="24" height="24" fill="white"/>
</clipPath>
</defs>
</svg>
