<svg width="40" height="54" viewBox="0 0 40 54" fill="none" xmlns="http://www.w3.org/2000/svg">
<path d="M39.0648 39.5165L34.8476 30.4735C34.676 30.158 34.6025 29.7927 34.6025 29.3983V22.4029C34.6025 14.5429 29.2085 7.99973 22.1718 6.76419V3.56229C22.1718 2.1112 21.076 0.933472 19.72 0.933472C18.3642 0.933472 17.2682 2.1112 17.2682 3.56229V6.76407C10.2316 7.9996 4.83764 14.5429 4.83764 22.4029V29.3983C4.83764 29.7927 4.76407 30.158 4.59246 30.4735L0.375318 39.5165C-0.0168757 40.3314 0.0320896 41.3067 0.473484 42.0691C0.914761 42.8577 1.69938 43.3309 2.55745 43.3309H36.8826C37.7407 43.3309 38.5253 42.8576 38.9667 42.0691C39.408 41.3067 39.4571 40.3314 39.0648 39.5165ZM22.1718 47.2717H11.9969C12.8059 51.0309 15.9688 53.8437 19.72 53.8437C23.4713 53.8437 26.6341 51.0309 27.4433 47.2717H22.1718Z" fill="#286FAA"/>
</svg>
