<svg width="20" height="20" viewBox="0 0 20 20" fill="none" xmlns="http://www.w3.org/2000/svg">
<path d="M10.165 0C10.6252 0 10.9988 0.37292 10.999 0.833008V9.33398H19.167C19.627 9.33416 19.9998 9.70701 20 10.167C20 10.6271 19.6271 11.0008 19.167 11.001H10.999V19.167C10.9988 19.6271 10.6252 20 10.165 20C9.70506 19.9998 9.33221 19.627 9.33203 19.167V11.001H0.833008C0.37292 11.0008 0 10.6271 0 10.167C0.000175823 9.70701 0.373029 9.33416 0.833008 9.33398H9.33203V0.833008C9.33221 0.373029 9.70506 0.000175823 10.165 0Z" fill="white"/>
</svg>
