<svg width="32" height="32" viewBox="0 0 32 32" fill="none" xmlns="http://www.w3.org/2000/svg">
<path d="M31.3355 29.5154L21.3005 19.4803C22.9213 17.4615 23.8917 14.8982 23.8917 12.108C23.8917 5.59926 18.6147 0.322266 12.106 0.322266C5.5973 0.322266 0.320312 5.59926 0.320312 12.108C0.320312 18.6167 5.5973 23.8937 12.106 23.8937C14.881 23.8937 17.4316 22.934 19.4453 21.3291L29.4835 31.3673C29.9949 31.8787 30.8241 31.8787 31.3355 31.3673C31.847 30.8559 31.847 30.0267 31.3355 29.5154ZM2.93944 12.108C2.93944 7.04571 7.04388 2.94133 12.1061 2.94133C17.1683 2.94133 21.2728 7.04571 21.2728 12.108C21.2728 14.6329 20.2515 16.9196 18.5997 18.5775C18.5904 18.5863 18.5805 18.594 18.5713 18.6031C18.5642 18.6103 18.5582 18.6181 18.5512 18.6254C16.8952 20.2631 14.6188 21.2746 12.1061 21.2746C7.04388 21.2746 2.93944 17.1702 2.93944 12.108Z" fill="white"/>
<path d="M16.0065 10.7977H13.3874V8.17864C13.3874 7.45542 12.8011 6.86914 12.0779 6.86914C11.3547 6.86914 10.7684 7.45542 10.7684 8.17864V10.7977H8.14935C7.42612 10.7977 6.83984 11.384 6.83984 12.1072C6.83984 12.8304 7.42612 13.4167 8.14935 13.4167H10.7684V16.0358C10.7684 16.759 11.3547 17.3453 12.0779 17.3453C12.8011 17.3453 13.3874 16.759 13.3874 16.0358V13.4167H16.0065C16.7297 13.4167 17.316 12.8304 17.316 12.1072C17.316 11.384 16.7297 10.7977 16.0065 10.7977Z" fill="white"/>
</svg>
