<svg width="24" height="24" viewBox="0 0 24 24" fill="none" xmlns="http://www.w3.org/2000/svg">
<g clip-path="url(#clip0_178_11)">
<mask id="mask0_178_11" style="mask-type:luminance" maskUnits="userSpaceOnUse" x="0" y="0" width="24" height="24">
<path d="M24 0H0V24H24V0Z" fill="white"/>
</mask>
<g mask="url(#mask0_178_11)">
<path d="M24 12C24 5.37259 18.6274 0 12 0C5.37259 0 0 5.37259 0 12C0 18.6274 5.37259 24 12 24C18.6274 24 24 18.6274 24 12Z" fill="#276AA7"/>
<mask id="mask1_178_11" style="mask-type:luminance" maskUnits="userSpaceOnUse" x="1" y="1" width="21" height="21">
<path d="M21.5334 1.77393H1.71814V21.5892H21.5334V1.77393Z" fill="white"/>
</mask>
<g mask="url(#mask1_178_11)">
<path d="M18.6445 6.7509V6.72779H18.628C17.8322 5.74758 16.8278 4.95725 15.6878 4.41438C14.5479 3.87156 13.3012 3.58984 12.0386 3.58984C10.776 3.58984 9.52935 3.87156 8.38942 4.41438C7.2495 4.95725 6.24503 5.74758 5.44923 6.72779H5.43355V6.7509C4.20611 8.26127 3.53607 10.1482 3.53607 12.0944C3.53607 14.0407 4.20611 15.9276 5.43355 17.4379V17.4611H5.45004C6.24584 18.4413 7.25032 19.2316 8.39024 19.7745C9.5302 20.3173 10.7769 20.599 12.0395 20.599C13.302 20.599 14.5487 20.3173 15.6887 19.7745C16.8286 19.2316 17.8331 18.4413 18.6289 17.4611H18.6462V17.4379C19.8737 15.9276 20.5437 14.0407 20.5437 12.0944C20.5437 10.1482 19.8737 8.26127 18.6462 6.7509H18.6445ZM12.4515 6.72779V4.47547C12.9407 4.68078 13.3807 4.98779 13.7422 5.37612C14.1038 5.76442 14.3786 6.22518 14.5486 6.72779H12.4515ZM14.8747 7.55343C15.3167 8.88601 15.5541 10.2779 15.5789 11.6816H12.4515V7.55343H14.8747ZM11.6258 4.47547V6.72779H9.52869C9.69862 6.22518 9.97346 5.76442 10.3351 5.37612C10.6966 4.98779 11.1366 4.68078 11.6258 4.47547ZM11.6258 7.55343V11.6816H8.49832C8.52313 10.2779 8.76057 8.88601 9.20256 7.55343H11.6258ZM7.67349 11.6816H4.3817C4.45993 10.1903 4.97442 8.7549 5.86122 7.55343H8.32493C7.91361 8.89178 7.69482 10.2816 7.67349 11.6816ZM7.67349 12.5073C7.69459 13.9072 7.91392 15.297 8.32493 16.6354H5.86122C4.97442 15.4339 4.45993 13.9985 4.3817 12.5073H7.67349ZM8.49913 12.5073H11.6258V16.6354H9.20256C8.76057 15.3028 8.52313 13.911 8.49832 12.5073H8.49913ZM11.6258 17.4611V19.7134C11.1366 19.5081 10.6966 19.2011 10.3351 18.8128C9.97346 18.4245 9.69862 17.9637 9.52869 17.4611H11.6258ZM12.4515 19.7134V17.4611H14.5486C14.3786 17.9637 14.1038 18.4245 13.7422 18.8128C13.3807 19.2011 12.9407 19.5081 12.4515 19.7134ZM12.4515 16.6354V12.5073H15.5789C15.5541 13.911 15.3167 15.3028 14.8747 16.6354H12.4515ZM16.4038 12.5073H19.6956C19.6174 13.9985 19.1029 15.4339 18.216 16.6354H15.7524C16.1636 15.2971 16.3824 13.9072 16.4038 12.5073ZM16.4038 11.6816C16.3827 10.2817 16.1634 8.89181 15.7524 7.55343H18.216C19.1029 8.7549 19.6174 10.1903 19.6956 11.6816H16.4038ZM17.52 6.72779H15.4551C15.1703 6.00682 14.7683 5.33784 14.2654 4.74794C15.4993 5.1242 16.6185 5.80511 17.52 6.72779ZM9.81189 4.74794C9.30924 5.33792 8.90755 6.0069 8.623 6.72779H6.55641C7.45788 5.80511 8.57717 5.1242 9.81108 4.74794H9.81189ZM6.55726 17.4611H8.62215C8.90701 18.182 9.30897 18.851 9.81189 19.4409C8.57802 19.0646 7.45873 18.3838 6.55726 17.4611ZM14.2654 19.4409C14.768 18.8509 15.1697 18.182 15.4543 17.4611H17.52C16.6185 18.3838 15.4993 19.0646 14.2654 19.4409Z" fill="white"/>
</g>
</g>
</g>
<defs>
<clipPath id="clip0_178_11">
<rect width="24" height="24" fill="white"/>
</clipPath>
</defs>
</svg>
